<?xml version="1.0" encoding="iso-8859-1"?>
<!-- Generator: Adobe Illustrator 19.0.0, SVG Export Plug-In . SVG Version: 6.00 Build 0)  -->
<svg version="1.1" id="Layer_1" xmlns="http://www.w3.org/2000/svg" xmlns:xlink="http://www.w3.org/1999/xlink" x="0px" y="0px"
	 viewBox="0 0 481.882 481.882" style="enable-background:new 0 0 481.882 481.882;" xml:space="preserve">
<path style="fill:#FFF4D1;" d="M353.882,165.783l-22.588,15.059c-0.12-2.04,0-52.706-30.118-67.765
	c-34.718,29.922-120.471,22.588-138.353-4.653c-11.784,18.56-12.235,34.771-12.235,72.418l-15.059-10.037v54.942l30.118,75.294
	l38.438,30.087c4.284,4.811,10.421,7.56,16.866,7.56h19.991h19.983c6.453,0,12.589-2.748,16.866-7.56l38.445-30.087l24.041-60.1
	c21.429-1.431,28.664-33.882,28.664-58.421C368.941,174.148,361.412,165.783,353.882,165.783z"/>
<path style="fill:#FFFFFF;" d="M162.824,108.424c-11.784,18.56-12.235,34.771-12.235,72.418L128,165.783
	c-7.529,0-15.059,8.365-15.059,16.738c0,24.538,7.236,56.983,28.664,58.421l24.041,60.1l38.438,30.087
	c4.284,4.811,10.421,7.56,16.866,7.56h19.991V132.201C207.556,133.557,173.38,124.499,162.824,108.424z"/>
<path style="fill:#4C2720;" d="M451.765,398.923c-4.631-10.037-12.785-18.033-22.912-22.453l-112.617-30.253h-75.294h-75.294
	L53.022,376.471c-10.12,4.42-18.274,12.416-22.904,22.453L0,481.747h240.941h240.941L451.765,398.923z"/>
<path style="fill:#FFEBB8;" d="M260.924,338.688h-19.983h-19.991c-6.445,0-12.582-2.748-16.866-7.56l-38.438-30.087v68.036
	c0,0,15.059,30.118,75.294,30.118s75.294-30.118,75.294-30.118v-68.036l-38.438,30.087
	C273.513,335.94,267.384,338.688,260.924,338.688z"/>
<path style="fill:#FFFFFF;" d="M240.941,481.747h23.906l-1.182-6.957c-0.136-0.753,0.12-1.498,0.648-2.033l19.72-19.23
	c0.632-0.602,0.851-1.521,0.58-2.349s-0.994-1.431-1.845-1.574l-27.249-3.945c-0.745-0.113-1.393-0.58-1.724-1.257l-12.183-24.674
	c-0.392-0.783-1.19-1.288-2.056-1.288c-0.873,0-1.672,0.497-2.063,1.288l-12.183,24.674c-0.331,0.678-0.979,1.144-1.724,1.257
	l-27.241,3.945c-0.866,0.143-1.581,0.745-1.852,1.574c-0.271,0.813-0.045,1.732,0.58,2.349l19.712,19.23
	c0.542,0.52,0.783,1.28,0.663,2.033l-1.205,6.957H240.941z"/>
<path style="fill:#FFF4D1;" d="M204.085,331.128l-38.438-30.087v68.036c0,0,15.059,30.118,75.294,30.118v-60.506h-19.991
	C214.505,338.688,208.369,335.94,204.085,331.128z"/>
<path style="fill:#804B1C;" d="M240.941,233.547c0,0-45.176,0-67.765,15.059c0,52.706,37.647,90.353,37.647,90.353l30.118,15.059
	l30.118-15.059c0,0,37.647-37.647,37.647-90.353C286.118,233.547,240.941,233.547,240.941,233.547z M256,293.783l-7.529-7.529
	h-7.529h-7.529l-7.529,7.529h-15.059l-8.907-14.848c-2.793-4.646-2.869-10.451-0.196-15.172c2.673-4.721,7.68-7.642,13.109-7.642
	h26.112h26.112c5.421,0,10.436,2.921,13.101,7.642c2.665,4.721,2.613,10.511-0.181,15.172l-8.915,14.848H256z"/>
<path style="fill:#AB6C24;" d="M233.412,286.253l-7.529,7.529h-15.059l-8.907-14.848c-2.793-4.646-2.869-10.451-0.196-15.172
	c2.673-4.721,7.68-7.642,13.109-7.642h26.112v-22.588c0,0-45.176,0-67.765,15.059c0,52.706,37.647,90.353,37.647,90.353
	l30.118,15.059v-67.765L233.412,286.253L233.412,286.253z"/>
<path style="fill:#4C2720;" d="M195.765,0.136l-15.059,37.647h-37.647c0,8.109,1.882,18.824,14.509,21.715
	C122.699,93.907,128,140.905,128,165.783l22.588,15.059c0-37.647,0.452-53.858,12.235-72.418
	c17.882,27.241,103.635,34.575,138.353,4.653c30.118,15.059,29.997,65.724,30.118,67.765l22.588-15.059
	C361.412,0.136,264.35,68.728,195.765,0.136z"/>
<path style="fill:#804B1C;" d="M240.941,28.393c-15.496-5.745-30.946-14.027-45.176-28.258l-15.059,37.647h-37.647
	c0,8.109,1.882,18.824,14.509,21.715C122.699,93.907,128,140.905,128,165.783l22.588,15.059c0-37.647,0.452-53.858,12.235-72.418
	c10.549,16.075,44.725,25.133,78.118,23.778V28.393z"/>
<path style="fill:#4C2720;" d="M361.254,156.491c-16.708-12.032-119.981-3.84-119.981-3.84s-103.936-8.192-120.651,3.84
	c0,0-0.67,15.714,0,24.064c16.038,8.019,5.338,21.391,16.038,24.056c13.365,3.343,69.85,8.026,80.211,0
	c10.925-8.456,16.038-32.083,24.064-32.083c8.019,0,13.139,23.627,24.064,32.083c10.353,8.026,66.846,3.343,80.203,0
	c10.707-2.665,0-16.038,16.045-24.056C361.924,172.205,361.254,156.491,361.254,156.491z"/>
<g>
	<path style="fill:#FF8000;" d="M144.038,194.485c-7.703-15.413-5.173-34.545,1.935-35.516c7.108-0.971,56.824-6.453,76.198,2.906
		c7.725,3.735-2.251,36.239-13.56,37.459C184.719,201.909,148.232,202.88,144.038,194.485z"/>
	<path style="fill:#FF8000;" d="M340.706,195.147c7.703-15.413,5.165-34.545-1.935-35.516c-7.1-0.964-56.832-6.453-76.198,2.906
		c-7.718,3.735,2.251,36.239,13.56,37.459C300.032,202.571,336.497,203.543,340.706,195.147z"/>
</g>
<g>
	<path style="fill:#FF9D00;" d="M145.973,158.946c-7.1,0.971-9.638,20.104-1.928,35.516c0.527,1.062,1.589,1.98,3.072,2.756
		l35.629-40.727C165.745,156.634,149.768,158.434,145.973,158.946z"/>
	<path style="fill:#FF9D00;" d="M262.573,162.5c-7.176,3.471,0.926,31.706,11.174,36.698l36.631-41.871
		C293.406,156.687,273.318,157.304,262.573,162.5z"/>
</g>
<g>
</g>
<g>
</g>
<g>
</g>
<g>
</g>
<g>
</g>
<g>
</g>
<g>
</g>
<g>
</g>
<g>
</g>
<g>
</g>
<g>
</g>
<g>
</g>
<g>
</g>
<g>
</g>
<g>
</g>
</svg>